<?xml version="1.0" encoding="UTF-8"?>
<!DOCTYPE svg PUBLIC "-//W3C//DTD SVG 1.1//EN" "http://www.w3.org/Graphics/SVG/1.1/DTD/svg11.dtd">
<!-- Creator: CorelDRAW X7 -->
<svg xmlns="http://www.w3.org/2000/svg" xml:space="preserve" width="8.26772in" height="11.6929in" version="1.1" style="shape-rendering:geometricPrecision; text-rendering:geometricPrecision; image-rendering:optimizeQuality; fill-rule:evenodd; clip-rule:evenodd"
viewBox="0 0 8268 11693"
 xmlns:xlink="http://www.w3.org/1999/xlink">
 <defs>
  <style type="text/css">
   <![CDATA[
    .str0 {stroke:black;stroke-width:10.4134}
    .fil0 {fill:#FFF}
   ]]>
  </style>
 </defs>
 <g id="Layer_x0020_1">
  <metadata id="CorelCorpID_0Corel-Layer"/>
  <polygon class="fil0 str0" points="5709,4539 5709,4006 6242,4539 "/>
  <polygon class="fil0 str0" points="6242,4532 5709,3999 6242,3999 "/>
  <polygon class="fil0 str0" points="5706,5079 5706,4546 6239,5079 "/>
  <polygon class="fil0 str0" points="6239,5072 5706,4538 6239,4538 "/>
  <polygon class="fil0 str0" points="5703,5619 5703,5085 6236,5619 "/>
  <polygon class="fil0 str0" points="6236,5612 5703,5078 6236,5078 "/>
  <polygon class="fil0 str0" points="5706,3995 5706,3462 6239,3995 "/>
  <polygon class="fil0 str0" points="6233,6152 5700,5618 6233,5618 "/>
  <polygon class="fil0 str0" points="5699,5621 5699,6155 5166,5621 "/>
  <polygon class="fil0 str0" points="5178,5090 5711,5623 5178,5623 "/>
  <polygon class="fil0 str0" points="5175,5631 5709,6164 5175,6164 "/>
  <polygon class="fil0 str0" points="4643,5068 4643,4535 5177,5068 "/>
  <polygon class="fil0 str0" points="4642,5089 5175,5623 4642,5623 "/>
  <polygon class="fil0 str0" points="5167,5625 5167,6158 4634,5625 "/>
  <polygon class="fil0 str0" points="5170,5072 5170,5606 4636,5072 "/>
  <polygon class="fil0 str0" points="4635,5620 4635,5086 4102,5620 "/>
  <polygon class="fil0 str0" points="4634,5069 4634,4536 4100,5069 "/>
  <polygon class="fil0 str0" points="4099,6158 4099,5625 3566,6158 "/>
  <polygon class="fil0 str0" points="4097,5608 4097,5075 3564,5608 "/>
  <polygon class="fil0 str0" points="3563,5616 3563,6149 4096,5616 "/>
  <polygon class="fil0 str0" points="4107,5623 4107,6156 4641,5623 "/>
  <polygon class="fil0 str0" points="4106,5072 4106,5605 4639,5072 "/>
  <polygon class="fil0 str0" points="5706,5630 6239,6163 5706,6163 "/>
  <polygon class="fil0 str0" points="3556,5626 3023,6159 3556,6159 "/>
  <polygon class="fil0 str0" points="3574,5087 3574,4553 3040,5087 "/>
  <polygon class="fil0 str0" points="3572,4536 3572,4003 3039,4536 "/>
  <polygon class="fil0 str0" points="3037,5625 3037,5092 2504,5625 "/>
  <polygon class="fil0 str0" points="3036,5075 3036,4542 2502,5075 "/>
  <polygon class="fil0 str0" points="2501,5083 2501,5616 3035,5083 "/>
  <polygon class="fil0 str0" points="3046,5090 3046,5623 3579,5090 "/>
  <polygon class="fil0 str0" points="3044,4539 3044,5072 3577,4539 "/>
  <polygon class="fil0 str0" points="2494,5093 1961,5626 2494,5626 "/>
  <polygon class="fil0 str0" points="2492,6173 2492,5639 1959,6173 "/>
  <polygon class="fil0 str0" points="1956,5630 1956,6163 2489,5630 "/>
  <polygon class="fil0 str0" points="2500,5630 2500,6163 3034,5630 "/>
  <polygon class="fil0 str0" points="4104,4540 4104,4007 3571,4540 "/>
  <polygon class="fil0 str0" points="3576,3992 3576,3459 3043,3992 "/>
  <polygon class="fil0 str0" points="3576,4543 3576,5076 4110,4543 "/>
  <polygon class="fil0 str0" points="3575,3993 3575,4526 4108,3993 "/>
  <polygon class="fil0 str0" points="4380,4265 4123,4004 4120,4523 "/>
  <polygon class="fil0 str0" points="3579,3992 3579,3458 4113,3992 "/>
  <polygon class="fil0 str0" points="3039,3459 3039,3992 3573,3459 "/>
  <polygon class="fil0 str0" points="3038,3991 3038,3458 2504,3991 "/>
  <polygon class="fil0 str0" points="2501,3458 2501,3991 3034,3458 "/>
  <polygon class="fil0 str0" points="2501,3988 2501,3455 1968,3988 "/>
 </g>
</svg>
